<svg width="130" height="60" viewBox="0 0 130 60" fill="none" xmlns="http://www.w3.org/2000/svg">
<path fill-rule="evenodd" clip-rule="evenodd" d="M10 0C4.47715 0 0 4.47715 0 10V50C0 55.5229 4.47715 60 10 60H120C125.523 60 130 55.5228 130 50V10C130 4.47715 125.523 0 120 0H10ZM25.3791 16.48V44H43.0591V38.4H32.3391V16.48H25.3791ZM46.8244 16.48V44H53.7844V16.48H46.8244ZM65.3197 44L57.0797 16.48H64.1997L69.8797 36.64H70.1597L75.7997 16.48H82.7597L74.5197 44H65.3197ZM86.0431 16.48V44H105.323V38.64H93.0031V32.76H103.443V27.48H93.0031V21.84H105.323V16.48H86.0431Z" fill="black"/>
</svg>
