<svg width="1499" height="1259" viewBox="0 0 1499 1259" fill="none" xmlns="http://www.w3.org/2000/svg">
<path fill-rule="evenodd" clip-rule="evenodd" d="M54.747 55.753L0 110.507V684.253V1258H125.499H250.998L251.249 838.781L251.5 419.562L564.515 838.531L877.529 1257.5L1002.27 1257.75L1127 1258.01V1214.44V1170.87L689.25 585.989L251.5 1.11301L180.497 1.056L109.493 1L54.747 55.753ZM372 44.562V88.132L809.75 673.01L1247.5 1257.89L1318.5 1257.94L1389.51 1258L1444.25 1203.25L1499 1148.49V574.747V1H1373.5H1248L1247.75 420.219L1247.5 839.438L934.485 420.469L621.471 1.5L496.735 1.246L372 0.992004V44.562Z" fill="#3A1F61"/>
</svg>
