<svg width="130" height="60" viewBox="0 0 130 60" fill="none" xmlns="http://www.w3.org/2000/svg">
<path fill-rule="evenodd" clip-rule="evenodd" d="M10 0C4.47715 0 0 4.47715 0 10V50C0 55.5229 4.47715 60 10 60H120C125.523 60 130 55.5228 130 50V10C130 4.47715 125.523 0 120 0H10ZM21.6095 44V16.48H28.7695L37.7295 31.24H37.9295V16.48H44.6095V44H38.0895L28.4895 27.88H28.2895V44H21.6095ZM50.2814 44V16.48H69.5614V21.84H57.2414V27.48H67.6814V32.76H57.2414V38.64H69.5614V44H50.2814ZM72.2992 16.48L78.4192 44H87.1392L91.2992 26.64H91.5792L95.7792 44H104.499L110.619 16.48H103.699L100.059 36.12H99.7392L95.1792 16.48H87.9792L83.4992 36.12H83.1792L79.2192 16.48H72.2992Z" fill="black"/>
</svg>